# xmcd CD database file
#
# Track frame offsets:
#	225
#	11361
#	22285
#	45849
#	62103
#	85789
#	101771
#	116445
#	126775
#	152915
#	180835
#	196551
#	211900
#	224641
#	255722
#	266373
#
# Disc length: 3686 seconds
#
# Revision: 2
# Processed by: cddbd v1.5.1PL2 Copyright (c) Steve Scherf et al.
# Submitted via: CDex 1.50
#
DISCID=d20e6310
DTITLE=BB King - Premier Collection Disc 2
DYEAR=2002
DGENRE=Blues
TTITLE0=Tickle Britches
TTITLE1=Don't Break Your Promises
TTITLE2=Five Long Years
TTITLE3=Catfish Blues
TTITLE4=The Other Night Blues
TTITLE5=A New Way Of Driving
TTITLE6=Army Of Lord
TTITLE7=I Never Heard A Man
TTITLE8=Save A Seat For Me
TTITLE9=Servants Prayer
TTITLE10=Take My Hand Precious Lord
TTITLE11=B. B. Boogie
TTITLE12=You Upset My Baby
TTITLE13=Rock Me Baby
TTITLE14=Blues At Midnight
TTITLE15=I Done Got Wise
EXTD=partly historical recordings - partly life recordings
EXTT0=
EXTT1=
EXTT2=
EXTT3=
EXTT4=
EXTT5=
EXTT6=
EXTT7=
EXTT8=
EXTT9=
EXTT10=
EXTT11=
EXTT12=
EXTT13=
EXTT14=
EXTT15=
PLAYORDER=
